<?xml version="1.0" encoding="UTF-8" standalone="no"?>
<!DOCTYPE svg PUBLIC "-//W3C//DTD SVG 1.1//EN"
 "http://www.w3.org/Graphics/SVG/1.1/DTD/svg11.dtd">
<!-- Generated by graphviz version 2.40.1 (20161225.0304)
 -->
<!-- Title: boxes_and_circles Pages: 1 -->
<svg width="795pt" height="173pt"
 viewBox="0.00 0.00 795.29 172.65" xmlns="http://www.w3.org/2000/svg" xmlns:xlink="http://www.w3.org/1999/xlink">
<g id="graph0" class="graph" transform="scale(1 1) rotate(0) translate(4 168.6492)">
<title>boxes_and_circles</title>
<polygon fill="#ffffff" stroke="transparent" points="-4,4 -4,-168.6492 791.2852,-168.6492 791.2852,4 -4,4"/>
<g id="clust1" class="cluster">
<title>cluster2</title>
<polygon fill="none" stroke="#ffffff" points="141.8928,-63.7028 141.8928,-151.7028 661.8928,-151.7028 661.8928,-63.7028 141.8928,-63.7028"/>
</g>
<!-- A -->
<g id="node1" class="node">
<title>A</title>
<ellipse fill="none" stroke="#000000" cx="56.9464" cy="-107.7028" rx="56.8929" ry="56.8929"/>
<text text-anchor="middle" x="56.9464" y="-111.9028" font-family="Times,serif" font-size="14.00" fill="#000000">(Unknown)</text>
<text text-anchor="middle" x="56.9464" y="-95.1028" font-family="Times,serif" font-size="14.00" fill="#000000">Parameters</text>
</g>
<!-- B -->
<g id="node2" class="node">
<title>B</title>
<polygon fill="none" stroke="#000000" points="293.8928,-143.7028 149.8928,-143.7028 149.8928,-71.7028 293.8928,-71.7028 293.8928,-143.7028"/>
<text text-anchor="middle" x="221.8928" y="-103.5028" font-family="Times,serif" font-size="14.00" fill="#000000">Collect data</text>
</g>
<!-- A&#45;&gt;B -->
<g id="edge3" class="edge">
<title>A&#45;&gt;B</title>
<path fill="none" stroke="#000000" d="M114.1738,-107.7028C122.3998,-107.7028 130.9966,-107.7028 139.591,-107.7028"/>
<polygon fill="#000000" stroke="#000000" points="139.6565,-111.2029 149.6565,-107.7028 139.6565,-104.2029 139.6565,-111.2029"/>
</g>
<!-- D -->
<!-- A&#45;&gt;D -->
<!-- C -->
<g id="node3" class="node">
<title>C</title>
<polygon fill="none" stroke="#000000" points="473.8928,-143.7028 329.8928,-143.7028 329.8928,-71.7028 473.8928,-71.7028 473.8928,-143.7028"/>
<text text-anchor="middle" x="401.8928" y="-111.9028" font-family="Times,serif" font-size="14.00" fill="#000000">Analyze data</text>
<text text-anchor="middle" x="401.8928" y="-95.1028" font-family="Times,serif" font-size="14.00" fill="#000000"> Make conclusion</text>
</g>
<!-- B&#45;&gt;C -->
<g id="edge1" class="edge">
<title>B&#45;&gt;C</title>
<path fill="none" stroke="#000000" d="M294.0686,-107.7028C302.4128,-107.7028 310.9699,-107.7028 319.4373,-107.7028"/>
<polygon fill="#000000" stroke="#000000" points="319.701,-111.2029 329.7009,-107.7028 319.7009,-104.2029 319.701,-111.2029"/>
</g>
<!-- C&#45;&gt;D -->
<!-- E -->
<!-- D&#45;&gt;E -->
</g>
</svg>
