<?xml version="1.0" encoding="UTF-8" standalone="no"?>
<!DOCTYPE svg PUBLIC "-//W3C//DTD SVG 1.1//EN"
 "http://www.w3.org/Graphics/SVG/1.1/DTD/svg11.dtd">
<!-- Generated by graphviz version 2.40.1 (20161225.0304)
 -->
<!-- Title: boxes_and_circles Pages: 1 -->
<svg width="631pt" height="142pt"
 viewBox="0.00 0.00 631.48 141.96" xmlns="http://www.w3.org/2000/svg" xmlns:xlink="http://www.w3.org/1999/xlink">
<g id="graph0" class="graph" transform="scale(1 1) rotate(0) translate(4 137.9632)">
<title>boxes_and_circles</title>
<polygon fill="#ffffff" stroke="transparent" points="-4,4 -4,-137.9632 627.4836,-137.9632 627.4836,4 -4,4"/>
<g id="clust1" class="cluster">
<title>cluster2</title>
<polygon fill="none" stroke="#0000ff" points="138.5745,-12.9632 138.5745,-125.9632 481.5571,-125.9632 481.5571,-12.9632 138.5745,-12.9632"/>
<text text-anchor="middle" x="310.0658" y="-109.3632" font-family="Times,serif" font-size="14.00" fill="#000000">Repeat M times</text>
</g>
<!-- A -->
<g id="node1" class="node">
<title>A</title>
<ellipse fill="none" stroke="#000000" cx="55.2873" cy="-56.9632" rx="55.0753" ry="55.0753"/>
<text text-anchor="middle" x="55.2873" y="-61.1632" font-family="Times,serif" font-size="14.00" fill="#000000">Set</text>
<text text-anchor="middle" x="55.2873" y="-44.3632" font-family="Times,serif" font-size="14.00" fill="#000000">Parameters</text>
</g>
<!-- B -->
<g id="node2" class="node">
<title>B</title>
<polygon fill="none" stroke="#000000" points="290.5745,-92.9632 146.5745,-92.9632 146.5745,-20.9632 290.5745,-20.9632 290.5745,-92.9632"/>
<text text-anchor="middle" x="218.5745" y="-52.7632" font-family="Times,serif" font-size="14.00" fill="#000000">Run process</text>
</g>
<!-- A&#45;&gt;B -->
<g id="edge2" class="edge">
<title>A&#45;&gt;B</title>
<path fill="none" stroke="#000000" d="M111.0248,-56.9632C119.1925,-56.9632 127.7462,-56.9632 136.309,-56.9632"/>
<polygon fill="#000000" stroke="#000000" points="136.3426,-60.4633 146.3425,-56.9632 136.3425,-53.4633 136.3426,-60.4633"/>
</g>
<!-- C -->
<g id="node3" class="node">
<title>C</title>
<polygon fill="none" stroke="#000000" points="473.5484,-92.9632 326.5832,-92.9632 326.5832,-20.9632 473.5484,-20.9632 473.5484,-92.9632"/>
<text text-anchor="middle" x="400.0658" y="-52.7632" font-family="Times,serif" font-size="14.00" fill="#000000">Calculate characteristic</text>
</g>
<!-- B&#45;&gt;C -->
<g id="edge1" class="edge">
<title>B&#45;&gt;C</title>
<path fill="none" stroke="#000000" d="M290.8262,-56.9632C299.2811,-56.9632 307.9597,-56.9632 316.5513,-56.9632"/>
<polygon fill="#000000" stroke="#000000" points="316.5785,-60.4633 326.5785,-56.9632 316.5785,-53.4633 316.5785,-60.4633"/>
</g>
<!-- E -->
<g id="node4" class="node">
<title>E</title>
<ellipse fill="none" stroke="#000000" cx="566.5204" cy="-56.9632" rx="56.9265" ry="56.9265"/>
<text text-anchor="middle" x="566.5204" y="-61.1632" font-family="Times,serif" font-size="14.00" fill="#000000">Generate</text>
<text text-anchor="middle" x="566.5204" y="-44.3632" font-family="Times,serif" font-size="14.00" fill="#000000">distribution</text>
</g>
<!-- C&#45;&gt;E -->
<g id="edge3" class="edge">
<title>C&#45;&gt;E</title>
<path fill="none" stroke="#000000" d="M473.5598,-56.9632C482.1042,-56.9632 490.7875,-56.9632 499.2426,-56.9632"/>
<polygon fill="#000000" stroke="#000000" points="499.4182,-60.4633 509.4181,-56.9632 499.4181,-53.4633 499.4182,-60.4633"/>
</g>
</g>
</svg>
