<?xml version="1.0" encoding="UTF-8" standalone="no"?>
<!DOCTYPE svg PUBLIC "-//W3C//DTD SVG 1.1//EN"
 "http://www.w3.org/Graphics/SVG/1.1/DTD/svg11.dtd">
<!-- Generated by graphviz version 2.40.1 (20161225.0304)
 -->
<!-- Title: boxes_and_circles Pages: 1 -->
<svg width="544pt" height="137pt"
 viewBox="0.00 0.00 544.00 137.00" xmlns="http://www.w3.org/2000/svg" xmlns:xlink="http://www.w3.org/1999/xlink">
<g id="graph0" class="graph" transform="scale(1 1) rotate(0) translate(4 133)">
<title>boxes_and_circles</title>
<polygon fill="#ffffff" stroke="transparent" points="-4,4 -4,-133 540,-133 540,4 -4,4"/>
<g id="clust1" class="cluster">
<title>cluster2</title>
<polygon fill="none" stroke="#0000ff" points="8,-8 8,-121 528,-121 528,-8 8,-8"/>
<text text-anchor="middle" x="268" y="-104.4" font-family="Times,serif" font-size="14.00" fill="#000000">Repeatable process</text>
</g>
<!-- B -->
<g id="node1" class="node">
<title>B</title>
<polygon fill="none" stroke="#000000" points="160,-88 16,-88 16,-16 160,-16 160,-88"/>
<text text-anchor="middle" x="88" y="-47.8" font-family="Times,serif" font-size="14.00" fill="#000000">Feature A</text>
</g>
<!-- C -->
<g id="node2" class="node">
<title>C</title>
<polygon fill="none" stroke="#000000" points="340,-88 196,-88 196,-16 340,-16 340,-88"/>
<text text-anchor="middle" x="268" y="-47.8" font-family="Times,serif" font-size="14.00" fill="#000000">Feature B</text>
</g>
<!-- B&#45;&gt;C -->
<!-- D -->
<g id="node3" class="node">
<title>D</title>
<polygon fill="none" stroke="#000000" points="520,-88 376,-88 376,-16 520,-16 520,-88"/>
<text text-anchor="middle" x="448" y="-47.8" font-family="Times,serif" font-size="14.00" fill="#000000">Feature C</text>
</g>
<!-- C&#45;&gt;D -->
</g>
</svg>
