<?xml version="1.0" encoding="UTF-8" standalone="no"?>
<!DOCTYPE svg PUBLIC "-//W3C//DTD SVG 1.1//EN"
 "http://www.w3.org/Graphics/SVG/1.1/DTD/svg11.dtd">
<!-- Generated by graphviz version 2.40.1 (20161225.0304)
 -->
<!-- Title: boxes_and_circles Pages: 1 -->
<svg width="483pt" height="319pt"
 viewBox="0.00 0.00 482.79 318.96" xmlns="http://www.w3.org/2000/svg" xmlns:xlink="http://www.w3.org/1999/xlink">
<g id="graph0" class="graph" transform="scale(1 1) rotate(0) translate(4 314.9632)">
<title>boxes_and_circles</title>
<polygon fill="#ffffff" stroke="transparent" points="-4,4 -4,-314.9632 478.7926,-314.9632 478.7926,4 -4,4"/>
<g id="clust1" class="cluster">
<title>cluster2</title>
<polygon fill="none" stroke="#0000ff" points="100.005,-121.9632 100.005,-302.9632 466.7926,-302.9632 466.7926,-121.9632 100.005,-121.9632"/>
<text text-anchor="middle" x="283.3988" y="-286.3632" font-family="Times,serif" font-size="14.00" fill="#000000">Repeat M times</text>
</g>
<g id="clust2" class="cluster">
<title>cluster3</title>
<polygon fill="none" stroke="transparent" points="108.005,-181.9632 108.005,-269.9632 458.7926,-269.9632 458.7926,-181.9632 108.005,-181.9632"/>
</g>
<!-- A -->
<g id="node1" class="node">
<title>A</title>
<ellipse fill="none" stroke="#000000" cx="40.0025" cy="-225.9632" rx="40.005" ry="40.005"/>
<text text-anchor="middle" x="40.0025" y="-221.7632" font-family="Times,serif" font-size="14.00" fill="#000000">Sample</text>
</g>
<!-- B -->
<g id="node2" class="node">
<title>B</title>
<polygon fill="none" stroke="#000000" points="270.6866,-261.9632 116.1111,-261.9632 116.1111,-189.9632 270.6866,-189.9632 270.6866,-261.9632"/>
<text text-anchor="middle" x="193.3988" y="-221.7632" font-family="Times,serif" font-size="14.00" fill="#000000">Create bootstrap sample </text>
</g>
<!-- A&#45;&gt;B -->
<g id="edge4" class="edge">
<title>A&#45;&gt;B</title>
<path fill="none" stroke="#000000" d="M80.3056,-225.9632C88.3029,-225.9632 96.9875,-225.9632 105.8699,-225.9632"/>
<polygon fill="#000000" stroke="#000000" points="105.9564,-229.4633 115.9564,-225.9632 105.9563,-222.4633 105.9564,-229.4633"/>
</g>
<!-- C -->
<g id="node3" class="node">
<title>C</title>
<polygon fill="none" stroke="#000000" points="450.7926,-261.9632 306.7926,-261.9632 306.7926,-189.9632 450.7926,-189.9632 450.7926,-261.9632"/>
<text text-anchor="middle" x="378.7926" y="-221.7632" font-family="Times,serif" font-size="14.00" fill="#000000">Estimate F</text>
</g>
<!-- B&#45;&gt;C -->
<g id="edge1" class="edge">
<title>B&#45;&gt;C</title>
<path fill="none" stroke="#000000" d="M270.9483,-225.9632C279.3428,-225.9632 287.9076,-225.9632 296.3574,-225.9632"/>
<polygon fill="#000000" stroke="#000000" points="296.5879,-229.4633 306.5878,-225.9632 296.5878,-222.4633 296.5879,-229.4633"/>
</g>
<!-- D -->
<g id="node4" class="node">
<title>D</title>
<polygon fill="none" stroke="#000000" points="265.3988,-171.5652 121.3988,-171.5652 121.3988,-130.3613 265.3988,-130.3613 265.3988,-171.5652"/>
<text text-anchor="middle" x="193.3988" y="-155.1632" font-family="Times,serif" font-size="14.00" fill="#000000">Calculate</text>
<text text-anchor="middle" x="193.3988" y="-138.3632" font-family="Times,serif" font-size="14.00" fill="#000000">summary measure</text>
</g>
<!-- C&#45;&gt;D -->
<g id="edge2" class="edge">
<title>C&#45;&gt;D</title>
<path fill="none" stroke="#000000" d="M306.5232,-192.8596C294.6537,-187.7071 282.4302,-182.5702 270.7926,-177.9632 268.5598,-177.0793 266.2851,-176.1946 263.9836,-175.3131"/>
<polygon fill="#000000" stroke="#000000" points="265.0031,-171.9573 254.4109,-171.7169 262.5413,-178.5101 265.0031,-171.9573"/>
</g>
<!-- D&#45;&gt;B -->
<g id="edge3" class="edge">
<title>D&#45;&gt;B</title>
<path fill="none" stroke="#000000" d="M193.3988,-171.764C193.3988,-174.3575 193.3988,-176.9511 193.3988,-179.5446"/>
<polygon fill="#000000" stroke="#000000" points="189.8989,-179.5481 193.3988,-189.5481 196.8989,-179.5482 189.8989,-179.5481"/>
</g>
<!-- E -->
<g id="node5" class="node">
<title>E</title>
<ellipse fill="none" stroke="#000000" cx="378.7926" cy="-56.9632" rx="56.9265" ry="56.9265"/>
<text text-anchor="middle" x="378.7926" y="-61.1632" font-family="Times,serif" font-size="14.00" fill="#000000">Generate</text>
<text text-anchor="middle" x="378.7926" y="-44.3632" font-family="Times,serif" font-size="14.00" fill="#000000">distribution</text>
</g>
<!-- D&#45;&gt;E -->
<g id="edge5" class="edge">
<title>D&#45;&gt;E</title>
<path fill="none" stroke="#000000" d="M234.0843,-130.3346C258.8871,-117.7588 291.0352,-101.4588 318.7288,-87.4173"/>
<polygon fill="#000000" stroke="#000000" points="320.5965,-90.3946 327.9328,-82.7507 317.4309,-84.1513 320.5965,-90.3946"/>
</g>
</g>
</svg>
