<?xml version="1.0" encoding="UTF-8" standalone="no"?>
<!DOCTYPE svg PUBLIC "-//W3C//DTD SVG 1.1//EN"
 "http://www.w3.org/Graphics/SVG/1.1/DTD/svg11.dtd">
<!-- Generated by graphviz version 2.40.1 (20161225.0304)
 -->
<!-- Title: boxes_and_circles Pages: 1 -->
<svg width="490pt" height="232pt"
 viewBox="0.00 0.00 489.93 231.96" xmlns="http://www.w3.org/2000/svg" xmlns:xlink="http://www.w3.org/1999/xlink">
<g id="graph0" class="graph" transform="scale(1 1) rotate(0) translate(4 227.9632)">
<title>boxes_and_circles</title>
<polygon fill="#ffffff" stroke="transparent" points="-4,4 -4,-227.9632 485.9315,-227.9632 485.9315,4 -4,4"/>
<g id="clust1" class="cluster">
<title>cluster2</title>
<polygon fill="none" stroke="#0000ff" points="108.005,-12.9632 108.005,-215.9632 340.005,-215.9632 340.005,-12.9632 108.005,-12.9632"/>
<text text-anchor="middle" x="224.005" y="-199.3632" font-family="Times,serif" font-size="14.00" fill="#000000">Repeat M times</text>
</g>
<!-- A -->
<g id="node1" class="node">
<title>A</title>
<ellipse fill="none" stroke="#000000" cx="40.0025" cy="-146.9632" rx="40.005" ry="40.005"/>
<text text-anchor="middle" x="40.0025" y="-142.7632" font-family="Times,serif" font-size="14.00" fill="#000000">Sample</text>
</g>
<!-- B -->
<g id="node2" class="node">
<title>B</title>
<polygon fill="none" stroke="#000000" points="332.005,-182.9632 116.005,-182.9632 116.005,-110.9632 332.005,-110.9632 332.005,-182.9632"/>
<text text-anchor="middle" x="224.005" y="-142.7632" font-family="Times,serif" font-size="14.00" fill="#000000">Generate bootstrap replicate</text>
</g>
<!-- A&#45;&gt;B -->
<g id="edge3" class="edge">
<title>A&#45;&gt;B</title>
<path fill="none" stroke="#000000" d="M80.3826,-146.9632C88.2226,-146.9632 96.8021,-146.9632 105.7426,-146.9632"/>
<polygon fill="#000000" stroke="#000000" points="105.9701,-150.4633 115.9701,-146.9632 105.9701,-143.4633 105.9701,-150.4633"/>
</g>
<!-- C -->
<g id="node3" class="node">
<title>C</title>
<polygon fill="none" stroke="#000000" points="332.005,-92.9632 116.005,-92.9632 116.005,-20.9632 332.005,-20.9632 332.005,-92.9632"/>
<text text-anchor="middle" x="224.005" y="-52.7632" font-family="Times,serif" font-size="14.00" fill="#000000">Calculate characteristic</text>
</g>
<!-- B&#45;&gt;C -->
<g id="edge1" class="edge">
<title>B&#45;&gt;C</title>
<path fill="none" stroke="#000000" d="M301.8647,-110.8237C303.7543,-108.1579 304.7912,-105.4921 304.9752,-102.8263"/>
<polygon fill="#000000" stroke="#000000" points="308.2737,-101.6488 301.9151,-93.1742 301.601,-103.7644 308.2737,-101.6488"/>
</g>
<!-- C&#45;&gt;B -->
<g id="edge2" class="edge">
<title>C&#45;&gt;B</title>
<path fill="none" stroke="#000000" d="M146.0949,-93.1742C144.2205,-95.84 143.1989,-98.5058 143.0301,-101.1716"/>
<polygon fill="#000000" stroke="#000000" points="139.7429,-102.3822 146.1453,-110.8237 146.4046,-100.2321 139.7429,-102.3822"/>
</g>
<!-- E -->
<g id="node4" class="node">
<title>E</title>
<ellipse fill="none" stroke="#000000" cx="424.9683" cy="-56.9632" rx="56.9265" ry="56.9265"/>
<text text-anchor="middle" x="424.9683" y="-69.5632" font-family="Times,serif" font-size="14.00" fill="#000000">Generate</text>
<text text-anchor="middle" x="424.9683" y="-52.7632" font-family="Times,serif" font-size="14.00" fill="#000000">boostrap</text>
<text text-anchor="middle" x="424.9683" y="-35.9632" font-family="Times,serif" font-size="14.00" fill="#000000">distribution</text>
</g>
<!-- C&#45;&gt;E -->
<g id="edge4" class="edge">
<title>C&#45;&gt;E</title>
<path fill="none" stroke="#000000" d="M332.1339,-56.9632C340.9184,-56.9632 349.6245,-56.9632 357.9815,-56.9632"/>
<polygon fill="#000000" stroke="#000000" points="357.9839,-60.4633 367.9839,-56.9632 357.9838,-53.4633 357.9839,-60.4633"/>
</g>
</g>
</svg>
