<?xml version="1.0" encoding="UTF-8" standalone="no"?>
<!DOCTYPE svg PUBLIC "-//W3C//DTD SVG 1.1//EN"
 "http://www.w3.org/Graphics/SVG/1.1/DTD/svg11.dtd">
<!-- Generated by graphviz version 2.40.1 (20161225.0304)
 -->
<!-- Title: boxes_and_circles Pages: 1 -->
<svg width="882pt" height="249pt"
 viewBox="0.00 0.00 882.17 248.91" xmlns="http://www.w3.org/2000/svg" xmlns:xlink="http://www.w3.org/1999/xlink">
<g id="graph0" class="graph" transform="scale(1 1) rotate(0) translate(4 244.9074)">
<title>boxes_and_circles</title>
<polygon fill="#ffffff" stroke="transparent" points="-4,4 -4,-244.9074 878.1676,-244.9074 878.1676,4 -4,4"/>
<g id="clust1" class="cluster">
<title>cluster2</title>
<polygon fill="none" stroke="#0000ff" points="249.4073,-86.2037 249.4073,-199.2037 769.4073,-199.2037 769.4073,-86.2037 249.4073,-86.2037"/>
<text text-anchor="middle" x="509.4073" y="-182.6037" font-family="Times,serif" font-size="14.00" fill="#000000">Repeat M times</text>
</g>
<!-- A -->
<g id="node1" class="node">
<title>A</title>
<ellipse fill="none" stroke="#000000" cx="110.7036" cy="-130.2037" rx="110.9077" ry="110.9077"/>
<text text-anchor="middle" x="110.7036" y="-134.4037" font-family="monospace" font-size="14.00" fill="#000000">Parameters:</text>
<text text-anchor="middle" x="110.7036" y="-117.6037" font-family="monospace" font-size="14.00" fill="#000000">c(N=100, &lt;U+03B8&gt;=1)</text>
</g>
<!-- B -->
<g id="node2" class="node">
<title>B</title>
<polygon fill="none" stroke="#000000" points="401.4073,-166.2037 257.4073,-166.2037 257.4073,-94.2037 401.4073,-94.2037 401.4073,-166.2037"/>
<text text-anchor="middle" x="329.4073" y="-126.0037" font-family="monospace" font-size="14.00" fill="#000000">generate_data()</text>
</g>
<!-- A&#45;&gt;B -->
<g id="edge3" class="edge">
<title>A&#45;&gt;B</title>
<path fill="none" stroke="#000000" d="M221.6573,-130.2037C230.2268,-130.2037 238.7833,-130.2037 247.116,-130.2037"/>
<polygon fill="#000000" stroke="#000000" points="247.1551,-133.7038 257.1551,-130.2037 247.155,-126.7038 247.1551,-133.7038"/>
</g>
<!-- D -->
<g id="node4" class="node">
<title>D</title>
<polygon fill="none" stroke="#000000" points="761.4073,-166.2037 617.4073,-166.2037 617.4073,-94.2037 761.4073,-94.2037 761.4073,-166.2037"/>
<text text-anchor="middle" x="689.4073" y="-126.0037" font-family="monospace" font-size="14.00" fill="#000000">oper_char()</text>
</g>
<!-- A&#45;&gt;D -->
<g id="edge5" class="edge">
<title>A:se&#45;&gt;D:s</title>
<path fill="none" stroke="#000000" d="M188.7036,-52.2037C265.1906,24.2832 663.3827,17.9493 688.195,-84.0352"/>
<polygon fill="#000000" stroke="#000000" points="684.748,-84.6884 689.4073,-94.2037 691.6988,-83.8597 684.748,-84.6884"/>
</g>
<!-- C -->
<g id="node3" class="node">
<title>C</title>
<polygon fill="none" stroke="#000000" points="581.4073,-166.2037 437.4073,-166.2037 437.4073,-94.2037 581.4073,-94.2037 581.4073,-166.2037"/>
<text text-anchor="middle" x="509.4073" y="-126.0037" font-family="monospace" font-size="14.00" fill="#000000">analysis()</text>
</g>
<!-- B&#45;&gt;C -->
<g id="edge1" class="edge">
<title>B&#45;&gt;C</title>
<path fill="none" stroke="#000000" d="M401.583,-130.2037C409.9272,-130.2037 418.4844,-130.2037 426.9518,-130.2037"/>
<polygon fill="#000000" stroke="#000000" points="427.2154,-133.7038 437.2154,-130.2037 427.2153,-126.7038 427.2154,-133.7038"/>
</g>
<!-- C&#45;&gt;D -->
<g id="edge2" class="edge">
<title>C&#45;&gt;D</title>
<path fill="none" stroke="#000000" d="M581.583,-130.2037C589.9272,-130.2037 598.4844,-130.2037 606.9518,-130.2037"/>
<polygon fill="#000000" stroke="#000000" points="607.2154,-133.7038 617.2154,-130.2037 607.2153,-126.7038 607.2154,-133.7038"/>
</g>
<!-- E -->
<g id="node5" class="node">
<title>E</title>
<ellipse fill="none" stroke="#000000" cx="835.7874" cy="-130.2037" rx="38.2607" ry="38.2607"/>
<text text-anchor="middle" x="835.7874" y="-126.0037" font-family="monospace" font-size="14.00" fill="#000000">mean()</text>
</g>
<!-- D&#45;&gt;E -->
<g id="edge4" class="edge">
<title>D&#45;&gt;E</title>
<path fill="none" stroke="#000000" d="M761.7397,-130.2037C770.3494,-130.2037 778.9749,-130.2037 787.1396,-130.2037"/>
<polygon fill="#000000" stroke="#000000" points="787.1992,-133.7038 797.1992,-130.2037 787.1991,-126.7038 787.1992,-133.7038"/>
</g>
</g>
</svg>
