<?xml version="1.0" encoding="UTF-8" standalone="no"?>
<!DOCTYPE svg PUBLIC "-//W3C//DTD SVG 1.1//EN"
 "http://www.w3.org/Graphics/SVG/1.1/DTD/svg11.dtd">
<!-- Generated by graphviz version 2.40.1 (20161225.0304)
 -->
<!-- Title: boxes_and_circles Pages: 1 -->
<svg width="805pt" height="198pt"
 viewBox="0.00 0.00 804.66 198.41" xmlns="http://www.w3.org/2000/svg" xmlns:xlink="http://www.w3.org/1999/xlink">
<g id="graph0" class="graph" transform="scale(1 1) rotate(0) translate(4 194.4113)">
<title>boxes_and_circles</title>
<polygon fill="#ffffff" stroke="transparent" points="-4,4 -4,-194.4113 800.6605,-194.4113 800.6605,4 -4,4"/>
<g id="clust1" class="cluster">
<title>cluster2</title>
<polygon fill="none" stroke="#0000ff" points="171.9002,-69.4113 171.9002,-182.4113 691.9002,-182.4113 691.9002,-69.4113 171.9002,-69.4113"/>
<text text-anchor="middle" x="431.9002" y="-165.8113" font-family="Times,serif" font-size="14.00" fill="#000000">Repeat M times</text>
</g>
<!-- A -->
<g id="node1" class="node">
<title>A</title>
<ellipse fill="none" stroke="#000000" cx="71.9501" cy="-113.4113" rx="71.9002" ry="71.9002"/>
<text text-anchor="middle" x="71.9501" y="-117.6113" font-family="monospace" font-size="14.00" fill="#000000">Parameters:</text>
<text text-anchor="middle" x="71.9501" y="-100.8113" font-family="monospace" font-size="14.00" fill="#000000">c(N=100, θ=1)</text>
</g>
<!-- B -->
<g id="node2" class="node">
<title>B</title>
<polygon fill="none" stroke="#000000" points="323.9002,-149.4113 179.9002,-149.4113 179.9002,-77.4113 323.9002,-77.4113 323.9002,-149.4113"/>
<text text-anchor="middle" x="251.9002" y="-109.2113" font-family="monospace" font-size="14.00" fill="#000000">generate_data()</text>
</g>
<!-- A&#45;&gt;B -->
<g id="edge3" class="edge">
<title>A&#45;&gt;B</title>
<path fill="none" stroke="#000000" d="M144.1058,-113.4113C152.4477,-113.4113 161.0025,-113.4113 169.4675,-113.4113"/>
<polygon fill="#000000" stroke="#000000" points="169.7283,-116.9114 179.7283,-113.4113 169.7282,-109.9114 169.7283,-116.9114"/>
</g>
<!-- D -->
<g id="node4" class="node">
<title>D</title>
<polygon fill="none" stroke="#000000" points="683.9002,-149.4113 539.9002,-149.4113 539.9002,-77.4113 683.9002,-77.4113 683.9002,-149.4113"/>
<text text-anchor="middle" x="611.9002" y="-109.2113" font-family="monospace" font-size="14.00" fill="#000000">oper_char()</text>
</g>
<!-- A&#45;&gt;D -->
<g id="edge5" class="edge">
<title>A:se&#45;&gt;D:s</title>
<path fill="none" stroke="#000000" d="M122.9501,-62.4113C197.3402,11.9788 585.6883,30.1477 610.6413,-67.2905"/>
<polygon fill="#000000" stroke="#000000" points="607.1925,-67.9198 611.9002,-77.4113 614.139,-67.0557 607.1925,-67.9198"/>
</g>
<!-- C -->
<g id="node3" class="node">
<title>C</title>
<polygon fill="none" stroke="#000000" points="503.9002,-149.4113 359.9002,-149.4113 359.9002,-77.4113 503.9002,-77.4113 503.9002,-149.4113"/>
<text text-anchor="middle" x="431.9002" y="-109.2113" font-family="monospace" font-size="14.00" fill="#000000">analysis()</text>
</g>
<!-- B&#45;&gt;C -->
<g id="edge1" class="edge">
<title>B&#45;&gt;C</title>
<path fill="none" stroke="#000000" d="M324.0759,-113.4113C332.4201,-113.4113 340.9772,-113.4113 349.4447,-113.4113"/>
<polygon fill="#000000" stroke="#000000" points="349.7083,-116.9114 359.7083,-113.4113 349.7082,-109.9114 349.7083,-116.9114"/>
</g>
<!-- C&#45;&gt;D -->
<g id="edge2" class="edge">
<title>C&#45;&gt;D</title>
<path fill="none" stroke="#000000" d="M504.0759,-113.4113C512.4201,-113.4113 520.9772,-113.4113 529.4447,-113.4113"/>
<polygon fill="#000000" stroke="#000000" points="529.7083,-116.9114 539.7083,-113.4113 529.7082,-109.9114 529.7083,-116.9114"/>
</g>
<!-- E -->
<g id="node5" class="node">
<title>E</title>
<ellipse fill="none" stroke="#000000" cx="758.2803" cy="-113.4113" rx="38.2607" ry="38.2607"/>
<text text-anchor="middle" x="758.2803" y="-109.2113" font-family="monospace" font-size="14.00" fill="#000000">mean()</text>
</g>
<!-- D&#45;&gt;E -->
<g id="edge4" class="edge">
<title>D&#45;&gt;E</title>
<path fill="none" stroke="#000000" d="M684.2326,-113.4113C692.8423,-113.4113 701.4678,-113.4113 709.6325,-113.4113"/>
<polygon fill="#000000" stroke="#000000" points="709.6921,-116.9114 719.6921,-113.4113 709.692,-109.9114 709.6921,-116.9114"/>
</g>
</g>
</svg>
