<?xml version="1.0" encoding="UTF-8" standalone="no"?>
<!DOCTYPE svg PUBLIC "-//W3C//DTD SVG 1.1//EN"
 "http://www.w3.org/Graphics/SVG/1.1/DTD/svg11.dtd">
<!-- Generated by graphviz version 2.40.1 (20161225.0304)
 -->
<!-- Title: boxes_and_circles Pages: 1 -->
<svg width="792pt" height="192pt"
 viewBox="0.00 0.00 791.97 192.14" xmlns="http://www.w3.org/2000/svg" xmlns:xlink="http://www.w3.org/1999/xlink">
<g id="graph0" class="graph" transform="scale(1 1) rotate(0) translate(4 188.1431)">
<title>boxes_and_circles</title>
<polygon fill="#ffffff" stroke="transparent" points="-4,4 -4,-188.1431 787.9669,-188.1431 787.9669,4 -4,4"/>
<g id="clust1" class="cluster">
<title>cluster2</title>
<polygon fill="none" stroke="#0000ff" points="138.5745,-63.1431 138.5745,-176.1431 658.5745,-176.1431 658.5745,-63.1431 138.5745,-63.1431"/>
<text text-anchor="middle" x="398.5745" y="-159.5431" font-family="Times,serif" font-size="14.00" fill="#000000">Repeat M times</text>
</g>
<!-- A -->
<g id="node1" class="node">
<title>A</title>
<ellipse fill="none" stroke="#000000" cx="55.2873" cy="-107.1431" rx="55.0753" ry="55.0753"/>
<text text-anchor="middle" x="55.2873" y="-111.3431" font-family="Times,serif" font-size="14.00" fill="#000000">Set</text>
<text text-anchor="middle" x="55.2873" y="-94.5431" font-family="Times,serif" font-size="14.00" fill="#000000">Parameters</text>
</g>
<!-- B -->
<g id="node2" class="node">
<title>B</title>
<polygon fill="none" stroke="#000000" points="290.5745,-143.1431 146.5745,-143.1431 146.5745,-71.1431 290.5745,-71.1431 290.5745,-143.1431"/>
<text text-anchor="middle" x="218.5745" y="-102.9431" font-family="Times,serif" font-size="14.00" fill="#000000">Generate data</text>
</g>
<!-- A&#45;&gt;B -->
<g id="edge3" class="edge">
<title>A&#45;&gt;B</title>
<path fill="none" stroke="#000000" d="M111.0248,-107.1431C119.1925,-107.1431 127.7462,-107.1431 136.309,-107.1431"/>
<polygon fill="#000000" stroke="#000000" points="136.3426,-110.6432 146.3425,-107.1431 136.3425,-103.6432 136.3426,-110.6432"/>
</g>
<!-- D -->
<g id="node4" class="node">
<title>D</title>
<polygon fill="none" stroke="#000000" points="650.5745,-143.1431 506.5745,-143.1431 506.5745,-71.1431 650.5745,-71.1431 650.5745,-143.1431"/>
<text text-anchor="middle" x="578.5745" y="-119.7431" font-family="Times,serif" font-size="14.00" fill="#000000">Compare interval</text>
<text text-anchor="middle" x="578.5745" y="-102.9431" font-family="Times,serif" font-size="14.00" fill="#000000">to truth</text>
<text text-anchor="middle" x="578.5745" y="-86.1431" font-family="Times,serif" font-size="14.00" fill="#000000">Capture/No capture?</text>
</g>
<!-- A&#45;&gt;D -->
<g id="edge5" class="edge">
<title>A:se&#45;&gt;D:s</title>
<path fill="none" stroke="#000000" d="M94.2873,-68.1431C167.9347,5.5044 552.6105,34.5907 577.3275,-61.1595"/>
<polygon fill="#000000" stroke="#000000" points="573.862,-61.654 578.5745,-71.1431 580.808,-60.7863 573.862,-61.654"/>
</g>
<!-- C -->
<g id="node3" class="node">
<title>C</title>
<polygon fill="none" stroke="#000000" points="470.5745,-143.1431 326.5745,-143.1431 326.5745,-71.1431 470.5745,-71.1431 470.5745,-143.1431"/>
<text text-anchor="middle" x="398.5745" y="-111.3431" font-family="Times,serif" font-size="14.00" fill="#000000">Analyze data</text>
<text text-anchor="middle" x="398.5745" y="-94.5431" font-family="Times,serif" font-size="14.00" fill="#000000"> (Construct interval)</text>
</g>
<!-- B&#45;&gt;C -->
<g id="edge1" class="edge">
<title>B&#45;&gt;C</title>
<path fill="none" stroke="#000000" d="M290.7503,-107.1431C299.0945,-107.1431 307.6516,-107.1431 316.119,-107.1431"/>
<polygon fill="#000000" stroke="#000000" points="316.3826,-110.6432 326.3826,-107.1431 316.3826,-103.6432 316.3826,-110.6432"/>
</g>
<!-- C&#45;&gt;D -->
<g id="edge2" class="edge">
<title>C&#45;&gt;D</title>
<path fill="none" stroke="#000000" d="M470.7503,-107.1431C479.0945,-107.1431 487.6516,-107.1431 496.119,-107.1431"/>
<polygon fill="#000000" stroke="#000000" points="496.3826,-110.6432 506.3826,-107.1431 496.3826,-103.6432 496.3826,-110.6432"/>
</g>
<!-- E -->
<g id="node5" class="node">
<title>E</title>
<ellipse fill="none" stroke="#000000" cx="735.2707" cy="-107.1431" rx="48.8932" ry="48.8932"/>
<text text-anchor="middle" x="735.2707" y="-119.7431" font-family="Times,serif" font-size="14.00" fill="#000000">Calculate</text>
<text text-anchor="middle" x="735.2707" y="-102.9431" font-family="Times,serif" font-size="14.00" fill="#000000">capture</text>
<text text-anchor="middle" x="735.2707" y="-86.1431" font-family="Times,serif" font-size="14.00" fill="#000000">rate</text>
</g>
<!-- D&#45;&gt;E -->
<g id="edge4" class="edge">
<title>D&#45;&gt;E</title>
<path fill="none" stroke="#000000" d="M650.9598,-107.1431C659.4174,-107.1431 667.9681,-107.1431 676.2147,-107.1431"/>
<polygon fill="#000000" stroke="#000000" points="676.468,-110.6432 686.468,-107.1431 676.4679,-103.6432 676.468,-110.6432"/>
</g>
</g>
</svg>
