<?xml version="1.0" encoding="UTF-8" standalone="no"?>
<!DOCTYPE svg PUBLIC "-//W3C//DTD SVG 1.1//EN"
 "http://www.w3.org/Graphics/SVG/1.1/DTD/svg11.dtd">
<!-- Generated by graphviz version 2.40.1 (20161225.0304)
 -->
<!-- Title: boxes_and_circles Pages: 1 -->
<svg width="893pt" height="257pt"
 viewBox="0.00 0.00 892.82 256.83" xmlns="http://www.w3.org/2000/svg" xmlns:xlink="http://www.w3.org/1999/xlink">
<g id="graph0" class="graph" transform="scale(1 1) rotate(0) translate(4 252.8301)">
<title>boxes_and_circles</title>
<polygon fill="#ffffff" stroke="transparent" points="-4,4 -4,-252.8301 888.8194,-252.8301 888.8194,4 -4,4"/>
<g id="clust1" class="cluster">
<title>cluster2</title>
<polygon fill="none" stroke="#0000ff" points="260.0592,-88.8005 260.0592,-201.8005 780.0592,-201.8005 780.0592,-88.8005 260.0592,-88.8005"/>
<text text-anchor="middle" x="520.0592" y="-185.2005" font-family="Times,serif" font-size="14.00" fill="#000000">Repeat M times</text>
</g>
<!-- A -->
<g id="node1" class="node">
<title>A</title>
<ellipse fill="none" stroke="#000000" cx="116.0296" cy="-132.8005" rx="116.0592" ry="116.0592"/>
<text text-anchor="middle" x="116.0296" y="-137.0005" font-family="monospace" font-size="14.00" fill="#000000">Parameters:</text>
<text text-anchor="middle" x="116.0296" y="-120.2005" font-family="monospace" font-size="14.00" fill="#000000">c(N=201, mean=0, sd = 1)</text>
</g>
<!-- B -->
<g id="node2" class="node">
<title>B</title>
<polygon fill="none" stroke="#000000" points="412.0592,-168.8005 268.0592,-168.8005 268.0592,-96.8005 412.0592,-96.8005 412.0592,-168.8005"/>
<text text-anchor="middle" x="340.0592" y="-128.6005" font-family="monospace" font-size="14.00" fill="#000000">generate_data()</text>
</g>
<!-- A&#45;&gt;B -->
<g id="edge3" class="edge">
<title>A&#45;&gt;B</title>
<path fill="none" stroke="#000000" d="M232.3096,-132.8005C240.9446,-132.8005 249.5458,-132.8005 257.9074,-132.8005"/>
<polygon fill="#000000" stroke="#000000" points="257.9742,-136.3006 267.9742,-132.8005 257.9742,-129.3006 257.9742,-136.3006"/>
</g>
<!-- D -->
<g id="node4" class="node">
<title>D</title>
<polygon fill="none" stroke="#000000" points="772.0592,-168.8005 628.0592,-168.8005 628.0592,-96.8005 772.0592,-96.8005 772.0592,-168.8005"/>
<text text-anchor="middle" x="700.0592" y="-128.6005" font-family="monospace" font-size="14.00" fill="#000000">capture_param()</text>
</g>
<!-- A&#45;&gt;D -->
<g id="edge5" class="edge">
<title>A:se&#45;&gt;D:s</title>
<path fill="none" stroke="#000000" d="M198.0296,-50.8005C274.7708,25.9408 673.9689,15.9629 698.8438,-86.5871"/>
<polygon fill="#000000" stroke="#000000" points="695.402,-87.2841 700.0592,-96.8005 702.353,-86.457 695.402,-87.2841"/>
</g>
<!-- C -->
<g id="node3" class="node">
<title>C</title>
<polygon fill="none" stroke="#000000" points="592.0592,-168.8005 448.0592,-168.8005 448.0592,-96.8005 592.0592,-96.8005 592.0592,-168.8005"/>
<text text-anchor="middle" x="520.0592" y="-128.6005" font-family="monospace" font-size="14.00" fill="#000000">construct_ci()</text>
</g>
<!-- B&#45;&gt;C -->
<g id="edge1" class="edge">
<title>B&#45;&gt;C</title>
<path fill="none" stroke="#000000" d="M412.2349,-132.8005C420.5791,-132.8005 429.1362,-132.8005 437.6036,-132.8005"/>
<polygon fill="#000000" stroke="#000000" points="437.8673,-136.3006 447.8672,-132.8005 437.8672,-129.3006 437.8673,-136.3006"/>
</g>
<!-- C&#45;&gt;D -->
<g id="edge2" class="edge">
<title>C&#45;&gt;D</title>
<path fill="none" stroke="#000000" d="M592.2349,-132.8005C600.5791,-132.8005 609.1362,-132.8005 617.6036,-132.8005"/>
<polygon fill="#000000" stroke="#000000" points="617.8673,-136.3006 627.8672,-132.8005 617.8672,-129.3006 617.8673,-136.3006"/>
</g>
<!-- E -->
<g id="node5" class="node">
<title>E</title>
<ellipse fill="none" stroke="#000000" cx="846.4393" cy="-132.8005" rx="38.2607" ry="38.2607"/>
<text text-anchor="middle" x="846.4393" y="-128.6005" font-family="monospace" font-size="14.00" fill="#000000">mean()</text>
</g>
<!-- D&#45;&gt;E -->
<g id="edge4" class="edge">
<title>D&#45;&gt;E</title>
<path fill="none" stroke="#000000" d="M772.3915,-132.8005C781.0012,-132.8005 789.6267,-132.8005 797.7914,-132.8005"/>
<polygon fill="#000000" stroke="#000000" points="797.8511,-136.3006 807.851,-132.8005 797.851,-129.3006 797.8511,-136.3006"/>
</g>
</g>
</svg>
