<?xml version="1.0" encoding="UTF-8" standalone="no"?>
<!DOCTYPE svg PUBLIC "-//W3C//DTD SVG 1.1//EN"
 "http://www.w3.org/Graphics/SVG/1.1/DTD/svg11.dtd">
<!-- Generated by graphviz version 2.40.1 (20161225.0304)
 -->
<!-- Title: boxes_and_circles Pages: 1 -->
<svg width="602pt" height="232pt"
 viewBox="0.00 0.00 602.20 231.96" xmlns="http://www.w3.org/2000/svg" xmlns:xlink="http://www.w3.org/1999/xlink">
<g id="graph0" class="graph" transform="scale(1 1) rotate(0) translate(4 227.9632)">
<title>boxes_and_circles</title>
<polygon fill="#ffffff" stroke="transparent" points="-4,4 -4,-227.9632 598.2029,-227.9632 598.2029,4 -4,4"/>
<g id="clust1" class="cluster">
<title>cluster2</title>
<polygon fill="none" stroke="#0000ff" points="220.2764,-12.9632 220.2764,-215.9632 452.2764,-215.9632 452.2764,-12.9632 220.2764,-12.9632"/>
<text text-anchor="middle" x="336.2764" y="-199.3632" font-family="Times,serif" font-size="14.00" fill="#000000">Repeat M times</text>
</g>
<!-- A -->
<g id="node1" class="node">
<title>A</title>
<ellipse fill="none" stroke="#000000" cx="40.0025" cy="-146.9632" rx="40.005" ry="40.005"/>
<text text-anchor="middle" x="40.0025" y="-142.7632" font-family="Times,serif" font-size="14.00" fill="#000000">Sample</text>
</g>
<!-- F -->
<g id="node2" class="node">
<title>F</title>
<text text-anchor="middle" x="154.1407" y="-142.7632" font-family="Times,serif" font-size="14.00" fill="#000000">Estimate F</text>
</g>
<!-- A&#45;&gt;F -->
<g id="edge3" class="edge">
<title>A&#45;&gt;F</title>
<path fill="none" stroke="#000000" d="M80.2434,-146.9632C88.4566,-146.9632 97.1806,-146.9632 105.6469,-146.9632"/>
<polygon fill="#000000" stroke="#000000" points="105.7945,-150.4633 115.7945,-146.9632 105.7945,-143.4633 105.7945,-150.4633"/>
</g>
<!-- B -->
<g id="node3" class="node">
<title>B</title>
<polygon fill="none" stroke="#000000" points="444.2764,-182.9632 228.2764,-182.9632 228.2764,-110.9632 444.2764,-110.9632 444.2764,-182.9632"/>
<text text-anchor="middle" x="336.2764" y="-142.7632" font-family="Times,serif" font-size="14.00" fill="#000000">Sample from F</text>
</g>
<!-- F&#45;&gt;B -->
<g id="edge4" class="edge">
<title>F&#45;&gt;B</title>
<path fill="none" stroke="#000000" d="M192.3223,-146.9632C200.2126,-146.9632 208.9134,-146.9632 218.0131,-146.9632"/>
<polygon fill="#000000" stroke="#000000" points="218.0244,-150.4633 228.0243,-146.9632 218.0243,-143.4633 218.0244,-150.4633"/>
</g>
<!-- C -->
<g id="node4" class="node">
<title>C</title>
<polygon fill="none" stroke="#000000" points="444.2764,-92.9632 228.2764,-92.9632 228.2764,-20.9632 444.2764,-20.9632 444.2764,-92.9632"/>
<text text-anchor="middle" x="336.2764" y="-52.7632" font-family="Times,serif" font-size="14.00" fill="#000000">Calculate summary measure</text>
</g>
<!-- B&#45;&gt;C -->
<g id="edge1" class="edge">
<title>B&#45;&gt;C</title>
<path fill="none" stroke="#000000" d="M414.1361,-110.8237C416.0257,-108.1579 417.0626,-105.4921 417.2466,-102.8263"/>
<polygon fill="#000000" stroke="#000000" points="420.5451,-101.6488 414.1865,-93.1742 413.8724,-103.7644 420.5451,-101.6488"/>
</g>
<!-- C&#45;&gt;B -->
<g id="edge2" class="edge">
<title>C&#45;&gt;B</title>
<path fill="none" stroke="#000000" d="M258.3663,-93.1742C256.4919,-95.84 255.4703,-98.5058 255.3015,-101.1716"/>
<polygon fill="#000000" stroke="#000000" points="252.0143,-102.3822 258.4167,-110.8237 258.676,-100.2321 252.0143,-102.3822"/>
</g>
<!-- E -->
<g id="node5" class="node">
<title>E</title>
<ellipse fill="none" stroke="#000000" cx="537.2397" cy="-56.9632" rx="56.9265" ry="56.9265"/>
<text text-anchor="middle" x="537.2397" y="-61.1632" font-family="Times,serif" font-size="14.00" fill="#000000">Generate</text>
<text text-anchor="middle" x="537.2397" y="-44.3632" font-family="Times,serif" font-size="14.00" fill="#000000">distribution</text>
</g>
<!-- C&#45;&gt;E -->
<g id="edge5" class="edge">
<title>C&#45;&gt;E</title>
<path fill="none" stroke="#000000" d="M444.4053,-56.9632C453.1898,-56.9632 461.8959,-56.9632 470.2529,-56.9632"/>
<polygon fill="#000000" stroke="#000000" points="470.2553,-60.4633 480.2553,-56.9632 470.2552,-53.4633 470.2553,-60.4633"/>
</g>
</g>
</svg>
