<?xml version="1.0" encoding="UTF-8" standalone="no"?>
<!DOCTYPE svg PUBLIC "-//W3C//DTD SVG 1.1//EN"
 "http://www.w3.org/Graphics/SVG/1.1/DTD/svg11.dtd">
<!-- Generated by graphviz version 2.40.1 (20161225.0304)
 -->
<!-- Title: boxes_and_circles Pages: 1 -->
<svg width="798pt" height="193pt"
 viewBox="0.00 0.00 798.48 192.61" xmlns="http://www.w3.org/2000/svg" xmlns:xlink="http://www.w3.org/1999/xlink">
<g id="graph0" class="graph" transform="scale(1 1) rotate(0) translate(4 188.6122)">
<title>boxes_and_circles</title>
<polygon fill="#ffffff" stroke="transparent" points="-4,4 -4,-188.6122 794.4817,-188.6122 794.4817,4 -4,4"/>
<g id="clust1" class="cluster">
<title>cluster2</title>
<polygon fill="none" stroke="#0000ff" points="138.5745,-63.6122 138.5745,-176.6122 665.0893,-176.6122 665.0893,-63.6122 138.5745,-63.6122"/>
<text text-anchor="middle" x="401.8319" y="-160.0122" font-family="Times,serif" font-size="14.00" fill="#000000">Repeat M times</text>
</g>
<!-- A -->
<g id="node1" class="node">
<title>A</title>
<ellipse fill="none" stroke="#000000" cx="55.2873" cy="-107.6122" rx="55.0753" ry="55.0753"/>
<text text-anchor="middle" x="55.2873" y="-111.8122" font-family="Times,serif" font-size="14.00" fill="#000000">Set</text>
<text text-anchor="middle" x="55.2873" y="-95.0122" font-family="Times,serif" font-size="14.00" fill="#000000">Parameters</text>
</g>
<!-- B -->
<g id="node2" class="node">
<title>B</title>
<polygon fill="none" stroke="#000000" points="290.5745,-143.6122 146.5745,-143.6122 146.5745,-71.6122 290.5745,-71.6122 290.5745,-143.6122"/>
<text text-anchor="middle" x="218.5745" y="-103.4122" font-family="Times,serif" font-size="14.00" fill="#000000">Generate data</text>
</g>
<!-- A&#45;&gt;B -->
<g id="edge3" class="edge">
<title>A&#45;&gt;B</title>
<path fill="none" stroke="#000000" d="M111.0248,-107.6122C119.1925,-107.6122 127.7462,-107.6122 136.309,-107.6122"/>
<polygon fill="#000000" stroke="#000000" points="136.3426,-111.1123 146.3425,-107.6122 136.3425,-104.1123 136.3426,-111.1123"/>
</g>
<!-- D -->
<g id="node4" class="node">
<title>D</title>
<polygon fill="none" stroke="#000000" points="656.8475,-143.6122 506.8164,-143.6122 506.8164,-71.6122 656.8475,-71.6122 656.8475,-143.6122"/>
<text text-anchor="middle" x="581.8319" y="-120.2122" font-family="Times,serif" font-size="14.00" fill="#000000">Compare estimated trait</text>
<text text-anchor="middle" x="581.8319" y="-103.4122" font-family="Times,serif" font-size="14.00" fill="#000000">to truth</text>
<text text-anchor="middle" x="581.8319" y="-86.6122" font-family="Times,serif" font-size="14.00" fill="#000000">Error/No error?</text>
</g>
<!-- A&#45;&gt;D -->
<g id="edge5" class="edge">
<title>A:se&#45;&gt;D:s</title>
<path fill="none" stroke="#000000" d="M94.2873,-68.6122C168.43,5.5306 555.6932,34.8314 580.5765,-61.5615"/>
<polygon fill="#000000" stroke="#000000" points="577.1194,-62.1231 581.8319,-71.6122 584.0654,-61.2555 577.1194,-62.1231"/>
</g>
<!-- C -->
<g id="node3" class="node">
<title>C</title>
<polygon fill="none" stroke="#000000" points="470.5745,-143.6122 326.5745,-143.6122 326.5745,-71.6122 470.5745,-71.6122 470.5745,-143.6122"/>
<text text-anchor="middle" x="398.5745" y="-111.8122" font-family="Times,serif" font-size="14.00" fill="#000000">Analyze data</text>
<text text-anchor="middle" x="398.5745" y="-95.0122" font-family="Times,serif" font-size="14.00" fill="#000000"> Estimate trait</text>
</g>
<!-- B&#45;&gt;C -->
<g id="edge1" class="edge">
<title>B&#45;&gt;C</title>
<path fill="none" stroke="#000000" d="M290.7503,-107.6122C299.0945,-107.6122 307.6516,-107.6122 316.119,-107.6122"/>
<polygon fill="#000000" stroke="#000000" points="316.3826,-111.1123 326.3826,-107.6122 316.3826,-104.1123 316.3826,-111.1123"/>
</g>
<!-- C&#45;&gt;D -->
<g id="edge2" class="edge">
<title>C&#45;&gt;D</title>
<path fill="none" stroke="#000000" d="M470.7396,-107.6122C479.2345,-107.6122 487.9634,-107.6122 496.6157,-107.6122"/>
<polygon fill="#000000" stroke="#000000" points="496.7189,-111.1123 506.7189,-107.6122 496.7188,-104.1123 496.7189,-111.1123"/>
</g>
<!-- E -->
<g id="node5" class="node">
<title>E</title>
<ellipse fill="none" stroke="#000000" cx="741.7855" cy="-107.6122" rx="48.8932" ry="48.8932"/>
<text text-anchor="middle" x="741.7855" y="-120.2122" font-family="Times,serif" font-size="14.00" fill="#000000">Calculate</text>
<text text-anchor="middle" x="741.7855" y="-103.4122" font-family="Times,serif" font-size="14.00" fill="#000000">error</text>
<text text-anchor="middle" x="741.7855" y="-86.6122" font-family="Times,serif" font-size="14.00" fill="#000000">rate</text>
</g>
<!-- D&#45;&gt;E -->
<g id="edge4" class="edge">
<title>D&#45;&gt;E</title>
<path fill="none" stroke="#000000" d="M657.125,-107.6122C665.766,-107.6122 674.4802,-107.6122 682.8622,-107.6122"/>
<polygon fill="#000000" stroke="#000000" points="682.8944,-111.1123 692.8944,-107.6122 682.8944,-104.1123 682.8944,-111.1123"/>
</g>
</g>
</svg>
